HIERARCHY
ROOT SpineBase
{
  OFFSET 0.000000 0.000000 0.000000
  CHANNELS 6 Xposition Yposition Zposition Zrotation Xrotation Yrotation
  JOINT SpineMid
  {
    OFFSET -0.000000 30.920603 0.000000
    CHANNELS 3 Zrotation Xrotation Yrotation
    JOINT SpineShoulder
    {
      OFFSET -0.111743 22.970369 -0.694571
      CHANNELS 3 Zrotation Xrotation Yrotation
      JOINT Neck
      {
        OFFSET -0.047708 7.608239 -0.548575
        CHANNELS 3 Zrotation Xrotation Yrotation
        JOINT Head
        {
          OFFSET -4.886853 13.366978 1.776085
          CHANNELS 3 Zrotation Xrotation Yrotation
          End Site
          {
            OFFSET 0 0 0
          }
        }
      }
      JOINT ShoulderLeft
      {
        OFFSET -14.850209 -3.357835 11.382449
        CHANNELS 3 Zrotation Xrotation Yrotation
        JOINT ElbowLeft
        {
          OFFSET -1.415521 -27.748265 0.922902
          CHANNELS 3 Zrotation Xrotation Yrotation
          JOINT WristLeft
          {
            OFFSET 2.871785 -23.580504 -11.813878
            CHANNELS 3 Zrotation Xrotation Yrotation
            JOINT HandLeft
            {
              OFFSET 1.500871 -4.150823 -1.999759
              CHANNELS 3 Zrotation Xrotation Yrotation
              JOINT HandTipLeft
              {
                OFFSET 0.836777 -4.237503 -1.593920
                CHANNELS 3 Zrotation Xrotation Yrotation
                End Site
                {
                  OFFSET 0 0 0
                }
              }
              JOINT ThumbLeft
              {
                OFFSET 3.272390 2.353934 -2.912261
                CHANNELS 3 Zrotation Xrotation Yrotation
                End Site
                {
                  OFFSET 0 0 0
                }
              }
            }
          }
        }
      }
      JOINT ShoulderRight
      {
        OFFSET 13.864567 -2.566725 -10.658624
        CHANNELS 3 Zrotation Xrotation Yrotation
        JOINT ElbowRight
        {
          OFFSET 7.988801 -24.798804 -4.049400
          CHANNELS 3 Zrotation Xrotation Yrotation
          JOINT WristRight
          {
            OFFSET -8.528536 -18.194481 -4.697192
            CHANNELS 3 Zrotation Xrotation Yrotation
            JOINT HandRight
            {
              OFFSET -3.486772 -5.765176 0.477509
              CHANNELS 3 Zrotation Xrotation Yrotation
              JOINT HandTipRight
              {
                OFFSET -3.466664 -6.658398 -1.626366
                CHANNELS 3 Zrotation Xrotation Yrotation
                End Site
                {
                  OFFSET 0 0 0
                }
              }
              JOINT ThumbRight
              {
                OFFSET -3.047295 0.846189 -2.649041
                CHANNELS 3 Zrotation Xrotation Yrotation
                End Site
                {
                  OFFSET 0 0 0
                }
              }
            }
          }
        }
      }
    }
  }
  JOINT HipLeft
  {
    OFFSET -5.846327 0.209441 0.573077
    CHANNELS 3 Zrotation Xrotation Yrotation
    JOINT KneeLeft
    {
      OFFSET 2.592153 -33.910693 2.863459
      CHANNELS 3 Zrotation Xrotation Yrotation
      JOINT AnkleLeft
      {
        OFFSET 5.299474 -32.449311 3.448348
        CHANNELS 3 Zrotation Xrotation Yrotation
        JOINT FootLeft
        {
          OFFSET -6.140779 -3.334734 -11.685360
          CHANNELS 3 Zrotation Xrotation Yrotation
          End Site
          {
            OFFSET 0 0 0
          }
        }
      }
    }
  }
  JOINT HipRight
  {
    OFFSET 5.700478 2.110658 -7.539323
    CHANNELS 3 Zrotation Xrotation Yrotation
    JOINT KneeRight
    {
      OFFSET 7.795846 -28.265019 -7.829497
      CHANNELS 3 Zrotation Xrotation Yrotation
      JOINT AnkleRight
      {
        OFFSET 9.390944 -39.921542 7.836823
        CHANNELS 3 Zrotation Xrotation Yrotation
        JOINT FootRight
        {
          OFFSET -6.378512 -3.272011 -11.634970
          CHANNELS 3 Zrotation Xrotation Yrotation
          End Site
          {
            OFFSET 0 0 0
          }
        }
      }
    }
  }
}
MOTION
Frames: 5
Frame Time: 0.033333
4.495147 80.537216 275.918270 -1.391186 -2.833282 35.070057 -0.148277 -0.183967 -35.164583 0.140708 -0.067886 -0.057804 3.623888 0.327264 -1.332413 0.000000 0.000000 0.000000 0.021775 1.706926 0.160227 2.090437 27.882183 2.319042 -1.222213 6.798395 8.238346 21.196145 -3.961397 -5.728921 0.000000 0.000000 0.000000 0.000000 0.000000 0.000000 -11.251984 6.517498 4.401261 -20.408712 -14.789662 4.979804 -4.444567 -8.819851 -6.144390 9.332169 -2.057769 5.644926 0.000000 0.000000 0.000000 0.000000 0.000000 0.000000 -3.339694 6.971525 -35.303203 0.862581 -8.934607 -2.037631 7.044990 8.227285 1.584327 0.000000 0.000000 0.000000 -2.656723 -6.441061 -38.143897 -0.696724 10.716589 3.094212 0.002488 -1.112559 -0.260710 0.000000 0.000000 0.000000
2.652373 80.090896 276.473371 -0.257480 -2.441277 34.880987 -0.213832 -0.126725 -34.908883 0.112042 -0.044503 -0.013697 3.700461 0.642036 -1.277155 0.000000 0.000000 0.000000 0.246741 2.712227 0.029009 1.400737 25.962466 1.962586 10.257269 9.295629 5.322687 10.180992 -4.654946 -4.274624 0.000000 0.000000 0.000000 0.000000 0.000000 0.000000 -11.041364 6.510304 4.115602 -20.733603 -15.027069 4.797349 1.812177 -11.162129 -5.123728 1.355416 1.777790 5.798662 0.000000 0.000000 0.000000 0.000000 0.000000 0.000000 -4.506106 7.027636 -35.054766 -0.433245 -9.496666 -2.424406 8.555051 8.594915 1.019137 0.000000 0.000000 0.000000 -2.593228 -6.573026 -38.103016 -0.473569 11.197081 3.659163 -1.526647 -1.877173 -0.766262 0.000000 0.000000 0.000000
0.547980 79.495397 277.295874 0.975461 -2.067017 34.761430 -0.185742 -0.101055 -34.725048 0.133930 -0.000190 0.040620 3.815246 1.083207 -1.232555 0.000000 0.000000 0.000000 0.127612 2.110831 -0.037071 0.451683 25.313510 1.724841 21.017935 8.429579 1.709620 -1.642111 1.607874 -2.586643 0.000000 0.000000 0.000000 0.000000 0.000000 0.000000 -10.743228 6.296710 3.657208 -20.329965 -15.001638 4.708760 5.138935 -13.985496 -3.312325 -2.433322 3.697688 5.318171 0.000000 0.000000 0.000000 0.000000 0.000000 0.000000 -5.658714 7.260937 -34.857477 -0.947911 -9.760376 -2.577712 9.042763 8.870890 0.611639 0.000000 0.000000 0.000000 -2.493936 -6.251041 -37.972668 0.357601 11.407895 4.087157 -3.076868 -3.252536 -1.870356 0.000000 0.000000 0.000000
-1.497459 78.892663 278.223020 2.415327 -1.622805 35.161066 -0.102779 -0.089520 -35.060216 0.202830 0.061231 0.107625 3.885998 1.616106 -1.188336 0.000000 0.000000 0.000000 0.750004 2.698890 -0.205927 -1.836460 23.236494 1.690947 28.407114 8.690633 -0.809655 -10.742373 4.781866 -1.201356 0.000000 0.000000 0.000000 0.000000 0.000000 0.000000 -10.288238 6.162579 3.133990 -20.466680 -14.756118 4.478645 8.383920 -16.014411 -1.519045 -6.008391 4.752790 5.192872 0.000000 0.000000 0.000000 0.000000 0.000000 0.000000 -6.898378 7.786658 -35.154934 -0.961880 -9.853311 -2.581531 9.139780 8.778318 0.027918 0.000000 0.000000 0.000000 -3.188201 -5.734853 -38.310244 1.902488 11.959416 4.415648 -5.126983 -4.176156 -3.084546 0.000000 0.000000 0.000000
-3.756118 78.351204 279.250214 4.334403 -1.011794 34.821567 -0.102514 -0.036973 -34.655607 0.074831 0.046191 0.180328 3.016615 1.639316 -1.178682 0.000000 0.000000 0.000000 0.844415 2.696794 -0.348462 -3.658126 21.954337 1.565075 36.927688 6.246335 -3.653306 -19.624621 8.317134 0.948183 0.000000 0.000000 0.000000 0.000000 0.000000 0.000000 -9.027092 6.173586 2.451412 -20.737395 -13.757767 3.929853 9.011927 -18.557837 0.879495 -7.413199 6.425386 4.463259 0.000000 0.000000 0.000000 0.000000 0.000000 0.000000 -8.389512 8.138277 -34.694419 -0.548372 -9.550304 -2.359179 8.497035 8.328249 -1.029335 0.000000 0.000000 0.000000 -4.084493 -5.040319 -37.876418 3.362666 12.318410 4.743011 -7.159111 -4.969065 -4.756335 0.000000 0.000000 0.000000
